#N canvas 120 112 487 300 10;
#X declare -lib Gem;
#X obj 27 -466 tgl 15 0 empty empty empty 17 7 0 10 -262144 -1 -1 0
1;
#X msg 28 -374 create \, 1;
#X msg 28 -395 0 \, destroy;
#X msg 27 -440 \; pd dsp \$1;
#X obj 140 -391 tgl 15 0 empty empty empty 17 7 0 10 -262144 -1 -1
0 1;
#X msg 121 -329 reset;
#X obj 241 -421 bng 15 250 50 0 empty empty empty 17 7 0 10 -262144
-1 -1;
#X text 261 -424 ativador;
#X obj 316 -416 bng 15 250 50 0 empty empty empty 17 7 0 10 -262144
-1 -1;
#X text 347 -401 osc receiver;
#X obj 29 -300 gemwin 7;
#X msg 121 -358 dimen 1024x768;
#N canvas 380 233 986 535 gol 0;
#X obj 340 -321 pix_film;
#X obj 267 -459 bng 15 250 50 0 empty empty empty 17 7 0 10 -257985
-1 -1;
#X obj 340 -416 t a b;
#X obj 385 -378 f;
#X floatatom 417 -353 5 0 0 0 - - -;
#X obj 385 -353 %;
#X obj 340 -166 pix_mix 0;
#X obj 340 -138 pix_texture;
#X floatatom 362 -266 5 0 0 0 - - -;
#X floatatom 396 -242 5 0 0 0 - - -;
#X floatatom 431 -263 5 0 0 0 - - -;
#X obj 362 -290 unpack f f f;
#X obj 491 -205 tgl 15 0 empty empty empty 17 7 0 10 -262144 -1 -1
0 1;
#X obj 550 -264 pix_film;
#X obj 572 -232 unpack f f f;
#X floatatom 572 -204 5 0 0 0 - - -;
#X floatatom 606 -184 5 0 0 0 - - -;
#X floatatom 641 -204 5 0 0 0 - - -;
#X msg 489 -368 auto \$1;
#X obj 489 -392 tgl 15 0 empty empty empty 17 7 0 10 -262144 -1 -1
0 1;
#X obj 424 -526 inlet;
#X obj 654 -530 inlet;
#X msg 210 -338 auto \$1;
#X obj 210 -362 tgl 15 0 empty empty empty 17 7 0 10 -262144 -1 -1
0 1;
#X floatatom 599 -513 5 0 0 0 - - -;
#X obj 550 -459 gemhead;
#X obj 340 -459 gemhead;
#X obj 347 -522 tgl 15 0 empty empty empty 17 7 0 10 -262144 -1 -1
0 1;
#X obj 512 -482 tgl 15 0 empty empty empty 17 7 0 10 -262144 -1 -1
0 1;
#X obj 654 -494 bng 15 250 50 0 empty empty empty 17 7 0 10 -262144
-1 -1;
#X obj 420 -379 + 1;
#X floatatom 609 -376 5 0 0 0 - - -;
#N canvas 285 97 865 620 bolafora 0;
#X obj 88 39 inlet;
#X obj 84 300 outlet;
#X msg 60 186 open ../lances/bolafora/01.mp4;
#X msg 75 212 open ../lances/bolafora/02.mp4;
#X msg 260 186 open ../lances/bolafora/03.mp4;
#X msg 274 211 open ../lances/bolafora/04.mp4;
#X msg 457 187 open ../lances/bolafora/05.mp4;
#X msg 472 211 open ../lances/bolafora/06.mp4;
#X msg 663 184 open ../lances/bolafora/07.mp4;
#X msg 667 211 open ../lances/bolafora/08.mp4;
#X obj 260 43 sel 0 1 2 3 4 5 6 7;
#X obj 100 102 random 8;
#X obj 286 371 s apito;
#X obj 302 328 bng 15 250 50 0 empty empty empty 17 7 0 10 -262144
-1 -1;
#X connect 0 0 11 0;
#X connect 2 0 1 0;
#X connect 2 0 13 0;
#X connect 3 0 1 0;
#X connect 3 0 13 0;
#X connect 4 0 1 0;
#X connect 4 0 13 0;
#X connect 5 0 1 0;
#X connect 5 0 13 0;
#X connect 6 0 1 0;
#X connect 6 0 13 0;
#X connect 7 0 1 0;
#X connect 7 0 13 0;
#X connect 8 0 1 0;
#X connect 8 0 13 0;
#X connect 9 0 1 0;
#X connect 9 0 13 0;
#X connect 10 0 2 0;
#X connect 10 1 3 0;
#X connect 10 2 4 0;
#X connect 10 3 5 0;
#X connect 10 4 6 0;
#X connect 10 5 7 0;
#X connect 10 7 8 0;
#X connect 10 8 9 0;
#X connect 11 0 10 0;
#X connect 13 0 12 0;
#X restore 637 -330 pd bolafora;
#X msg 66 -437 open esperando.mp4;
#N canvas 214 276 786 431 gol 0;
#X obj 50 13 inlet;
#X obj 44 395 outlet;
#X msg 12 135 open ../lances/gol/01.mp4;
#X msg 39 186 open ../lances/gol/03.mp4;
#X msg 194 135 open ../lances/gol/05.mp4;
#X msg 25 161 open ../lances/gol/02.mp4;
#X msg 53 211 open ../lances/gol/04.mp4;
#X msg 209 159 open ../lances/gol/06.mp4;
#X msg 228 213 open ../lances/gol/08.mp4;
#X msg 377 134 open ../lances/gol/09.mp4;
#X msg 392 158 open ../lances/gol/10.mp4;
#X msg 397 185 open ../lances/gol/11.mp4;
#X msg 411 212 open ../lances/gol/12.mp4;
#X obj 163 44 sel 0 1 2 3 4 5 6 7 8 9;
#X obj 50 51 random 11;
#X obj 342 346 s apito;
#X obj 358 303 bng 15 250 50 0 empty empty empty 17 7 0 10 -262144
-1 -1;
#X connect 0 0 14 0;
#X connect 2 0 1 0;
#X connect 2 0 16 0;
#X connect 3 0 1 0;
#X connect 3 0 16 0;
#X connect 4 0 1 0;
#X connect 4 0 16 0;
#X connect 5 0 1 0;
#X connect 5 0 16 0;
#X connect 6 0 1 0;
#X connect 6 0 16 0;
#X connect 7 0 1 0;
#X connect 7 0 16 0;
#X connect 8 0 1 0;
#X connect 8 0 16 0;
#X connect 9 0 1 0;
#X connect 9 0 16 0;
#X connect 10 0 1 0;
#X connect 10 0 16 0;
#X connect 11 0 1 0;
#X connect 11 0 16 0;
#X connect 12 0 1 0;
#X connect 12 0 16 0;
#X connect 13 0 2 0;
#X connect 13 1 5 0;
#X connect 13 2 3 0;
#X connect 13 3 6 0;
#X connect 13 4 4 0;
#X connect 13 5 7 0;
#X connect 13 6 8 0;
#X connect 13 7 9 0;
#X connect 13 8 10 0;
#X connect 13 9 11 0;
#X connect 13 10 12 0;
#X connect 14 0 13 0;
#X connect 16 0 15 0;
#X restore 718 -329 pd gol;
#N canvas 279 92 786 638 defesas 0;
#X obj 50 13 inlet;
#X obj 23 327 outlet;
#X msg 12 135 open ../lances/defesas/01.mp4;
#X msg 210 135 open ../lances/defesas/03.mp4;
#X msg 25 161 open ../lances/defesas/02.mp4;
#X msg 224 160 open ../lances/defesas/04.mp4;
#X msg 407 136 open ../lances/defesas/05.mp4;
#X msg 422 160 open ../lances/defesas/06.mp4;
#X msg 603 133 open ../lances/defesas/07.mp4;
#X msg 617 160 open ../lances/defesas/08.mp4;
#X obj 50 51 random 20;
#X msg 21 186 open ../lances/defesas/09.mp4;
#X msg 219 186 open ../lances/defesas/10.mp4;
#X msg 416 187 open ../lances/defesas/11.mp4;
#X msg 612 184 open ../lances/defesas/12.mp4;
#X msg 34 212 open ../lances/defesas/13.mp4;
#X msg 233 211 open ../lances/defesas/14.mp4;
#X msg 431 211 open ../lances/defesas/15.mp4;
#X msg 626 211 open ../lances/defesas/16.mp4;
#X msg 33 236 open ../lances/defesas/17.mp4;
#X msg 232 235 open ../lances/defesas/18.mp4;
#X msg 430 235 open ../lances/defesas/19.mp4;
#X msg 625 235 open ../lances/defesas/20.mp4;
#X obj 170 90 sel 0 1 2 3 4 5 6 7 8 9 10 11 12 13 14 15 16 17 18 19
;
#X obj 336 421 s apito;
#X obj 352 378 bng 15 250 50 0 empty empty empty 17 7 0 10 -262144
-1 -1;
#X connect 0 0 10 0;
#X connect 2 0 1 0;
#X connect 2 0 25 0;
#X connect 3 0 1 0;
#X connect 3 0 25 0;
#X connect 4 0 1 0;
#X connect 4 0 25 0;
#X connect 5 0 1 0;
#X connect 5 0 25 0;
#X connect 6 0 1 0;
#X connect 6 0 25 0;
#X connect 7 0 1 0;
#X connect 7 0 25 0;
#X connect 8 0 1 0;
#X connect 8 0 25 0;
#X connect 9 0 1 0;
#X connect 9 0 25 0;
#X connect 10 0 23 0;
#X connect 11 0 1 0;
#X connect 11 0 25 0;
#X connect 12 0 1 0;
#X connect 12 0 25 0;
#X connect 13 0 1 0;
#X connect 13 0 25 0;
#X connect 14 0 1 0;
#X connect 14 0 25 0;
#X connect 15 0 1 0;
#X connect 15 0 25 0;
#X connect 16 0 1 0;
#X connect 16 0 25 0;
#X connect 17 0 1 0;
#X connect 17 0 25 0;
#X connect 18 0 1 0;
#X connect 18 0 25 0;
#X connect 19 0 1 0;
#X connect 19 0 25 0;
#X connect 20 0 1 0;
#X connect 20 0 25 0;
#X connect 21 0 1 0;
#X connect 21 0 25 0;
#X connect 22 0 1 0;
#X connect 22 0 25 0;
#X connect 23 0 2 0;
#X connect 23 1 4 0;
#X connect 23 2 3 0;
#X connect 23 3 5 0;
#X connect 23 4 6 0;
#X connect 23 5 7 0;
#X connect 23 7 8 0;
#X connect 23 8 9 0;
#X connect 23 9 11 0;
#X connect 23 10 12 0;
#X connect 23 11 13 0;
#X connect 23 12 14 0;
#X connect 23 13 15 0;
#X connect 23 14 16 0;
#X connect 23 15 17 0;
#X connect 23 16 18 0;
#X connect 23 17 19 0;
#X connect 23 18 20 0;
#X connect 23 19 21 0;
#X connect 23 20 22 0;
#X connect 25 0 24 0;
#X restore 948 -333 pd defesas;
#X obj 334 -108 rectangle 4 3;
#X obj -52 72 dac~;
#N canvas 114 165 835 285 especialgol 0;
#X obj 50 13 inlet;
#X obj 25 249 outlet;
#X msg 210 135 open ../lances/especial/03.mp4;
#X msg 224 160 open ../lances/especial/04.mp4;
#X msg 407 136 open ../lances/especial/05.mp4;
#X msg 423 159 open ../lances/especial/06.mp4;
#X msg 603 133 open ../lances/especial/07.mp4;
#X obj 125 101 sel 0 1 2 3 4;
#X obj 50 51 random 5;
#X obj 373 239 s apito;
#X obj 389 196 bng 15 250 50 0 empty empty empty 17 7 0 10 -262144
-1 -1;
#X connect 0 0 8 0;
#X connect 2 0 1 0;
#X connect 2 0 10 0;
#X connect 3 0 1 0;
#X connect 3 0 10 0;
#X connect 4 0 1 0;
#X connect 4 0 10 0;
#X connect 5 0 1 0;
#X connect 5 0 10 0;
#X connect 6 0 1 0;
#X connect 6 0 10 0;
#X connect 7 0 2 0;
#X connect 7 1 3 0;
#X connect 7 2 4 0;
#X connect 7 3 5 0;
#X connect 7 4 6 0;
#X connect 8 0 7 0;
#X connect 10 0 9 0;
#X restore 760 -330 pd especialgol;
#X obj 655 -456 random 5;
#X obj 654 -425 sel 0 1 2 3 4 5;
#N canvas 412 351 789 300 especialfora 0;
#X obj 129 18 inlet;
#X obj 144 273 outlet;
#X msg 47 111 open ../lances/especial/01.mp4;
#X msg 50 137 open ../lances/especial/02.mp4;
#X msg 272 112 open ../lances/especial/08.mp4;
#X msg 279 138 open ../lances/especial/09.mp4;
#X obj 130 71 sel 0 1 2;
#X obj 129 49 random 4;
#X obj 296 220 s apito;
#X obj 312 177 bng 15 250 50 0 empty empty empty 17 7 0 10 -262144
-1 -1;
#X connect 0 0 7 0;
#X connect 2 0 1 0;
#X connect 2 0 9 0;
#X connect 3 0 1 0;
#X connect 3 0 9 0;
#X connect 4 0 1 0;
#X connect 4 0 9 0;
#X connect 5 0 1 0;
#X connect 5 0 9 0;
#X connect 6 0 2 0;
#X connect 6 1 3 0;
#X connect 6 2 4 0;
#X connect 6 3 5 0;
#X connect 7 0 6 0;
#X connect 9 0 8 0;
#X restore 851 -331 pd especialfora;
#X connect 0 0 6 0;
#X connect 0 1 4 0;
#X connect 0 1 11 0;
#X connect 1 0 33 0;
#X connect 2 0 0 0;
#X connect 2 1 3 0;
#X connect 3 0 5 0;
#X connect 3 0 30 0;
#X connect 4 0 5 1;
#X connect 5 0 0 1;
#X connect 6 0 7 0;
#X connect 7 0 36 0;
#X connect 11 0 8 0;
#X connect 11 1 9 0;
#X connect 11 2 10 0;
#X connect 12 0 6 2;
#X connect 13 0 6 1;
#X connect 13 1 14 0;
#X connect 14 0 15 0;
#X connect 14 1 16 0;
#X connect 14 2 17 0;
#X connect 18 0 13 0;
#X connect 19 0 18 0;
#X connect 20 0 12 0;
#X connect 20 0 19 0;
#X connect 20 0 23 0;
#X connect 20 0 1 0;
#X connect 20 0 28 0;
#X connect 20 0 27 0;
#X connect 21 0 24 0;
#X connect 21 0 29 0;
#X connect 22 0 0 0;
#X connect 23 0 22 0;
#X connect 25 0 13 0;
#X connect 26 0 2 0;
#X connect 27 0 26 0;
#X connect 28 0 25 0;
#X connect 29 0 39 0;
#X connect 30 0 3 1;
#X connect 32 0 13 0;
#X connect 33 0 0 0;
#X connect 34 0 13 0;
#X connect 35 0 13 0;
#X connect 38 0 13 0;
#X connect 39 0 40 0;
#X connect 40 0 31 0;
#X connect 40 0 32 0;
#X connect 40 1 34 0;
#X connect 40 3 38 0;
#X connect 40 4 35 0;
#X connect 40 6 41 0;
#X connect 41 0 13 0;
#X restore 241 -384 pd gol;
#N canvas 680 179 575 437 osc 1;
#X obj 26 -383 print;
#X obj 8 -409 dumpOSC 12001;
#X obj 8 -352 outlet;
#X obj 124 -387 bng 15 250 50 0 empty empty empty 17 7 0 10 -262144
-1 -1;
#X obj 84 -184 dac~;
#X obj 81 -226 readsf~;
#X msg 85 -252 open som/chute.wav \, 1;
#X obj 229 -343 s chute;
#X obj 315 -203 spigot;
#X obj 368 -372 r apito;
#X obj 47 -124 bng 15 250 50 0 empty empty empty 17 7 0 10 -262144
-1 -1;
#X obj 376 -153 bng 15 250 50 0 empty empty empty 17 7 0 10 -262144
-1 -1;
#X obj 369 -346 tgl 15 0 empty empty empty 17 7 0 10 -262144 -1 -1
0 1;
#X obj 214 -295 delay 2000;
#X floatatom 310 -145 5 0 0 0 - - -;
#X obj 357 -236 == 0;
#X obj 64 -83 unpack f f f;
#X obj 145 -43 tgl 15 0 empty empty empty 17 7 0 10 -262144 -1 -1 0
1;
#X obj 213 -112 bng 15 250 50 0 empty empty empty 17 7 0 10 -262144
-1 -1;
#X obj 247 -103 delay 2000;
#X obj 250 -64 bng 15 250 50 0 empty empty empty 17 7 0 10 -262144
-1 -1;
#X msg 87 -129 print 1;
#X floatatom 354 -289 5 0 0 0 - - -;
#X connect 1 0 0 0;
#X connect 1 0 3 0;
#X connect 3 0 6 0;
#X connect 3 0 7 0;
#X connect 3 0 2 0;
#X connect 5 0 4 0;
#X connect 5 0 4 1;
#X connect 6 0 5 0;
#X connect 8 0 11 0;
#X connect 8 0 14 0;
#X connect 9 0 12 0;
#X connect 15 0 8 1;
#X connect 16 1 17 0;
#X connect 16 1 18 0;
#X connect 17 0 8 0;
#X connect 17 0 22 0;
#X connect 18 0 19 0;
#X connect 19 0 20 0;
#X connect 20 0 17 0;
#X connect 21 0 16 0;
#X connect 22 0 15 0;
#X restore 316 -456 pd osc;
#X obj 53 -468 declare -lib Gem;
#N canvas 829 106 450 300 finalpartida 0;
#X obj 78 93 key;
#X floatatom 78 125 5 0 0 0 - - -;
#X obj 78 159 sel 27;
#X obj 78 199 outlet;
#X connect 0 0 1 0;
#X connect 1 0 2 0;
#X connect 2 0 3 0;
#X restore 108 -424 pd finalpartida;
#X msg 198 -306 fullscreen \$1;
#X obj 201 -331 tgl 15 0 empty empty empty 17 7 0 10 -262144 -1 -1
0 1;
#X connect 0 0 3 0;
#X connect 1 0 10 0;
#X connect 2 0 10 0;
#X connect 4 0 10 0;
#X connect 5 0 10 0;
#X connect 6 0 12 0;
#X connect 6 0 1 0;
#X connect 6 0 17 0;
#X connect 8 0 12 1;
#X connect 11 0 10 0;
#X connect 13 0 8 0;
#X connect 15 0 2 0;
#X connect 16 0 10 0;
#X connect 17 0 16 0;
